<?xml version="1.0" standalone="no"?>
<!DOCTYPE svg PUBLIC "-//W3C//DTD SVG 20010904//EN"
 "http://www.w3.org/TR/2001/REC-SVG-20010904/DTD/svg10.dtd">
<svg version="1.0" xmlns="http://www.w3.org/2000/svg"
 width="808.000000pt" height="834.000000pt" viewBox="0 0 808.000000 834.000000"
 preserveAspectRatio="xMidYMid meet">

<g transform="translate(0.000000,834.000000) scale(0.100000,-0.100000)"
fill="#2199af" stroke="none">
<path d="M0 4170 l0 -4170 4040 0 4040 0 0 4170 0 4170 -4040 0 -4040 0 0
-4170z m6093 2756 c18 -7 41 -25 50 -39 16 -24 17 -127 17 -1477 0 -1586 3
-1498 -56 -1520 -16 -6 -743 -10 -1935 -10 -2089 0 -1957 -4 -1979 56 -11 28
-14 2353 -4 2391 4 13 21 32 39 43 32 20 45 20 699 18 l666 -3 32 -33 33 -32
3 -535 3 -534 539 -3 540 -3 32 -33 33 -32 2 -403 c2 -221 3 -471 3 -555 l0
-152 573 2 572 3 3 1333 2 1332 -866 0 -866 0 -34 34 c-46 46 -47 92 -3 135
l31 31 919 0 c754 0 926 -2 952 -14z m-4246 -3764 c63 -24 133 -77 133 -101 0
-10 -11 -28 -24 -40 l-25 -23 -39 31 c-108 87 -287 96 -370 18 -38 -35 -52
-72 -52 -132 0 -126 34 -154 303 -250 146 -52 225 -126 247 -231 23 -112 -8
-214 -87 -284 -129 -113 -407 -102 -548 21 -19 17 -35 35 -35 39 0 5 11 21 24
37 l24 28 42 -34 c117 -93 358 -104 438 -18 50 53 66 161 33 225 -37 71 -90
104 -276 166 -187 63 -254 132 -263 270 -2 39 1 89 7 112 23 86 104 159 205
185 54 14 206 3 263 -19z m4129 -10 c83 -43 124 -117 124 -224 0 -87 -21 -139
-73 -185 -35 -31 -118 -63 -162 -63 -38 0 -110 30 -147 60 -116 96 -108 313
14 399 65 45 170 51 244 13z m-3071 -252 c154 -381 207 -510 265 -645 68 -157
69 -161 34 -168 -51 -9 -63 4 -119 133 -30 69 -54 131 -55 138 0 9 -54 12
-234 12 l-234 0 -50 -122 c-27 -68 -52 -131 -55 -140 -5 -14 -18 -18 -52 -18
-25 0 -45 4 -45 9 0 11 56 157 110 286 23 55 63 154 90 220 58 143 207 510
221 544 5 13 11 22 13 20 2 -2 52 -123 111 -269z m836 -226 l-2 -492 164 -7
c90 -4 190 -6 223 -5 96 5 96 5 92 -37 l-3 -38 -282 -3 -283 -2 0 493 c0 272
3 515 6 541 l7 47 40 -3 40 -3 -2 -491z m1459 456 l0 -40 -245 0 -245 0 0
-200 0 -200 224 0 c247 0 254 -2 241 -60 l-7 -30 -229 0 -229 0 0 -215 0 -215
245 0 245 0 0 -40 0 -40 -290 0 -290 0 0 540 0 540 290 0 290 0 0 -40z m1130
-214 c104 -98 292 -273 418 -387 50 -46 92 -86 92 -89 0 -3 -96 -102 -214
-219 l-214 -214 -26 17 c-14 9 -26 22 -26 29 0 7 81 93 180 192 99 99 180 185
180 191 0 6 -21 31 -47 54 -54 49 -261 241 -404 375 -53 49 -97 95 -98 100 0
6 6 21 15 33 20 29 36 21 144 -82z m-240 -755 c0 -5 3 -23 6 -40 l7 -31 -227
0 c-247 0 -236 -3 -220 58 6 22 7 22 220 22 118 0 214 -4 214 -9z m-1505 -261
c4 -6 -7 -10 -24 -10 -39 0 -40 -15 -2 -34 16 -9 31 -22 34 -29 8 -22 -22 -59
-46 -55 -28 4 -33 25 -5 24 35 -1 34 30 -1 49 -32 16 -35 22 -25 49 7 18 59
22 69 6z m173 -6 c29 -20 30 -76 2 -104 -42 -42 -110 -10 -110 52 0 60 57 88
108 52z m172 -15 c0 -24 4 -30 15 -25 8 3 15 1 15 -4 0 -6 -7 -10 -15 -10 -10
0 -15 -10 -15 -30 0 -16 -4 -30 -10 -30 -6 0 -10 28 -10 65 0 37 4 65 10 65 6
0 10 -14 10 -31z m194 9 c33 -46 12 -118 -34 -118 -24 0 -40 29 -40 70 0 66
43 93 74 48z m168 6 c26 -14 29 -19 24 -46 -3 -17 -6 -41 -6 -55 0 -14 -4 -21
-10 -18 -5 3 -10 18 -10 33 0 21 -2 24 -10 12 -6 -10 -10 -11 -10 -2 0 6 -7
12 -15 12 -10 0 -15 -10 -15 -31 0 -17 -4 -28 -10 -24 -11 7 -14 118 -3 128
10 11 32 8 65 -9z m128 -31 c29 -46 30 -46 31 -17 0 16 4 38 9 49 6 17 9 14
15 -17 8 -42 -1 -108 -15 -108 -4 0 -22 24 -39 53 l-31 52 0 -47 c0 -27 -4
-48 -10 -48 -6 0 -10 28 -10 65 0 38 4 65 10 65 6 0 24 -21 40 -47z m220 27
c42 -42 7 -120 -55 -120 -27 0 -35 17 -35 70 0 21 3 45 6 54 9 23 60 20 84 -4z
m145 10 c-3 -5 -15 -10 -26 -10 -10 0 -19 -7 -19 -15 0 -8 9 -15 20 -15 11 0
20 -4 20 -10 0 -5 -8 -10 -19 -10 -10 0 -21 -9 -24 -19 -6 -25 0 -31 30 -31
14 0 21 -4 18 -10 -3 -5 -19 -10 -36 -10 l-29 0 0 70 0 70 36 0 c21 0 33 -4
29 -10z m145 0 c0 -5 -11 -10 -25 -10 -33 0 -32 -15 5 -36 39 -24 44 -40 19
-65 -14 -14 -27 -18 -42 -13 -38 11 -42 24 -5 18 41 -7 63 13 33 30 -10 6 -29
21 -44 32 -22 19 -23 24 -12 38 15 17 71 22 71 6z m155 0 c-3 -5 -13 -10 -21
-10 -10 0 -14 -14 -14 -54 0 -30 -4 -58 -10 -61 -6 -4 -10 17 -10 54 0 48 -3
61 -15 61 -8 0 -15 5 -15 10 0 6 21 10 46 10 27 0 43 -4 39 -10z m160 -10 c22
-25 22 -76 -1 -101 -41 -46 -123 0 -110 62 11 57 75 79 111 39z m156 10 c23
-13 25 -46 3 -54 -16 -6 -16 -18 2 -60 5 -14 4 -17 -5 -12 -7 5 -16 19 -22 33
-11 29 -35 25 -31 -5 2 -12 -2 -22 -7 -22 -7 0 -11 26 -11 65 0 63 1 65 26 65
14 0 34 -5 45 -10z m99 -15 c0 -32 7 -31 32 1 27 33 34 24 13 -16 -16 -31 -16
-34 5 -62 28 -38 15 -52 -14 -15 -26 32 -36 34 -36 7 0 -11 -4 -20 -10 -20 -6
0 -10 28 -10 65 0 37 4 65 10 65 6 0 10 -11 10 -25z m-1500 -40 c0 -30 -4 -55
-9 -55 -11 0 -19 54 -13 86 8 44 22 25 22 -31z"/>
<path d="M2380 5130 l0 -1060 1103 0 c606 0 1107 4 1114 8 10 6 12 119 10 487
l-2 480 -540 5 c-578 5 -576 5 -595 56 -6 15 -10 244 -10 555 l0 529 -540 0
-540 0 0 -1060z"/>
<path d="M5825 3093 c-34 -9 -85 -65 -96 -106 -13 -48 -3 -111 23 -155 54 -88
188 -82 244 13 38 64 10 191 -51 231 -26 17 -87 26 -120 17z"/>
<path d="M2698 2712 c-47 -119 -89 -228 -93 -241 l-7 -24 188 7 c103 4 190 8
192 10 3 3 -48 135 -130 336 -8 19 -23 56 -32 83 -10 26 -21 47 -24 47 -4 0
-46 -98 -94 -218z"/>
<path d="M4700 1892 c-21 -7 -30 -23 -30 -52 0 -32 17 -50 46 -50 29 0 46 23
42 56 -3 30 -35 55 -58 46z"/>
<path d="M5072 1843 c3 -40 6 -48 23 -48 17 0 20 7 20 45 0 39 -3 45 -23 48
-22 3 -23 1 -20 -45z"/>
<path d="M5240 1864 c0 -31 23 -28 28 4 2 15 -2 22 -12 22 -11 0 -16 -9 -16
-26z"/>
<path d="M5292 1860 c0 -14 2 -19 5 -12 2 6 2 18 0 25 -3 6 -5 1 -5 -13z"/>
<path d="M5570 1840 c0 -43 3 -50 19 -50 41 0 68 59 39 88 -7 7 -22 12 -35 12
-21 0 -23 -4 -23 -50z"/>
<path d="M6158 1866 c-16 -36 3 -76 36 -76 32 0 48 22 44 62 -3 29 -7 33 -35
36 -27 3 -35 -1 -45 -22z"/>
<path d="M6347 1883 c-16 -15 -6 -33 18 -33 18 0 25 5 25 20 0 20 -28 28 -43
13z"/>
</g>
</svg>
